<mxfile host="app.diagrams.net" modified="2020-09-15T15:12:56.440Z" agent="5.0 (Windows NT 10.0; Win64; x64) AppleWebKit/537.36 (KHTML, like Gecko) Chrome/85.0.4183.83 Safari/537.36" etag="t1xGDef6WPsrmvwkjAda" version="13.6.10" type="github">
  <diagram id="0aSuquJckO65U_86Vf19" name="Page-1">
    <mxGraphModel dx="1422" dy="794" grid="1" gridSize="10" guides="1" tooltips="1" connect="1" arrows="1" fold="1" page="1" pageScale="1" pageWidth="827" pageHeight="1169" math="0" shadow="0">
      <root>
        <mxCell id="0" />
        <mxCell id="1" parent="0" />
        <mxCell id="Vky2oYJvrOt-J66mhdeJ-7" value="File / Save" style="edgeStyle=orthogonalEdgeStyle;rounded=0;orthogonalLoop=1;jettySize=auto;html=1;exitX=0;exitY=0.5;exitDx=0;exitDy=0;entryX=0.19;entryY=-0.057;entryDx=0;entryDy=0;entryPerimeter=0;" edge="1" parent="1" source="Vky2oYJvrOt-J66mhdeJ-12" target="Vky2oYJvrOt-J66mhdeJ-6">
          <mxGeometry relative="1" as="geometry">
            <mxPoint x="320" y="360" as="sourcePoint" />
          </mxGeometry>
        </mxCell>
        <mxCell id="Vky2oYJvrOt-J66mhdeJ-10" value="Build (F7)" style="edgeStyle=orthogonalEdgeStyle;rounded=0;orthogonalLoop=1;jettySize=auto;html=1;exitX=1;exitY=0.5;exitDx=0;exitDy=0;entryX=0;entryY=0;entryDx=43;entryDy=0;entryPerimeter=0;" edge="1" parent="1" source="Vky2oYJvrOt-J66mhdeJ-13" target="Vky2oYJvrOt-J66mhdeJ-9">
          <mxGeometry relative="1" as="geometry">
            <mxPoint x="440" y="360" as="sourcePoint" />
          </mxGeometry>
        </mxCell>
        <mxCell id="Vky2oYJvrOt-J66mhdeJ-3" style="edgeStyle=orthogonalEdgeStyle;rounded=0;orthogonalLoop=1;jettySize=auto;html=1;exitX=0;exitY=0;exitDx=100;exitDy=37;exitPerimeter=0;entryX=0.5;entryY=0;entryDx=0;entryDy=0;" edge="1" parent="1" source="Vky2oYJvrOt-J66mhdeJ-2" target="Vky2oYJvrOt-J66mhdeJ-11">
          <mxGeometry relative="1" as="geometry" />
        </mxCell>
        <mxCell id="Vky2oYJvrOt-J66mhdeJ-4" value="File / New" style="edgeLabel;html=1;align=center;verticalAlign=middle;resizable=0;points=[];" vertex="1" connectable="0" parent="Vky2oYJvrOt-J66mhdeJ-3">
          <mxGeometry x="-0.1667" y="-1" relative="1" as="geometry">
            <mxPoint as="offset" />
          </mxGeometry>
        </mxCell>
        <mxCell id="Vky2oYJvrOt-J66mhdeJ-2" value="Installed&lt;br&gt;Hardware&lt;br&gt;Platform" style="shape=note;whiteSpace=wrap;html=1;size=14;verticalAlign=top;align=left;spacingTop=-6;shadow=0;glass=0;" vertex="1" parent="1">
          <mxGeometry x="250" y="170" width="100" height="60" as="geometry" />
        </mxCell>
        <mxCell id="Vky2oYJvrOt-J66mhdeJ-8" value="File / Open" style="edgeStyle=orthogonalEdgeStyle;rounded=0;orthogonalLoop=1;jettySize=auto;html=1;exitX=0.5;exitY=0;exitDx=0;exitDy=0;exitPerimeter=0;entryX=-0.007;entryY=0.231;entryDx=0;entryDy=0;entryPerimeter=0;" edge="1" parent="1" source="Vky2oYJvrOt-J66mhdeJ-6" target="Vky2oYJvrOt-J66mhdeJ-13">
          <mxGeometry relative="1" as="geometry">
            <mxPoint x="320" y="375" as="targetPoint" />
          </mxGeometry>
        </mxCell>
        <mxCell id="Vky2oYJvrOt-J66mhdeJ-6" value="Hardware&lt;br&gt;Applet&lt;br&gt;*.va" style="shape=note;whiteSpace=wrap;html=1;size=14;verticalAlign=top;align=left;spacingTop=-6;shadow=0;glass=0;" vertex="1" parent="1">
          <mxGeometry x="250" y="360" width="100" height="70" as="geometry" />
        </mxCell>
        <mxCell id="Vky2oYJvrOt-J66mhdeJ-9" value="Bitstream" style="shape=note;whiteSpace=wrap;html=1;size=14;verticalAlign=top;align=left;spacingTop=-6;shadow=0;glass=0;" vertex="1" parent="1">
          <mxGeometry x="540" y="360" width="100" height="70" as="geometry" />
        </mxCell>
        <mxCell id="Vky2oYJvrOt-J66mhdeJ-11" value="Visual Applets" style="swimlane;fontStyle=0;childLayout=stackLayout;horizontal=1;startSize=26;fillColor=none;horizontalStack=0;resizeParent=1;resizeParentMax=0;resizeLast=0;collapsible=1;marginBottom=0;" vertex="1" parent="1">
          <mxGeometry x="380" y="250" width="140" height="78" as="geometry">
            <mxRectangle x="510" y="570" width="110" height="26" as="alternateBounds" />
          </mxGeometry>
        </mxCell>
        <mxCell id="Vky2oYJvrOt-J66mhdeJ-12" value="create" style="text;strokeColor=none;fillColor=none;align=left;verticalAlign=top;spacingLeft=4;spacingRight=4;overflow=hidden;rotatable=0;points=[[0,0.5],[1,0.5]];portConstraint=eastwest;" vertex="1" parent="Vky2oYJvrOt-J66mhdeJ-11">
          <mxGeometry y="26" width="140" height="26" as="geometry" />
        </mxCell>
        <mxCell id="Vky2oYJvrOt-J66mhdeJ-13" value="simulate (F7)" style="text;strokeColor=none;fillColor=none;align=left;verticalAlign=top;spacingLeft=4;spacingRight=4;overflow=hidden;rotatable=0;points=[[0,0.5],[1,0.5]];portConstraint=eastwest;" vertex="1" parent="Vky2oYJvrOt-J66mhdeJ-11">
          <mxGeometry y="52" width="140" height="26" as="geometry" />
        </mxCell>
      </root>
    </mxGraphModel>
  </diagram>
</mxfile>
